<svg xmlns="http://www.w3.org/2000/svg" width="370.704" height="54.6" viewBox="0 0 370.704 54.6">
  <g id="그룹_3" data-name="그룹 3" transform="translate(-317.5 -136.9)">
    <path id="패스_1" data-name="패스 1" d="M55.8-51.6v5.2H18.5V0H13V-51.6ZM50.6-28.9v5H27v-5Z" transform="translate(306 190)" fill="#fff" stroke="#fff" stroke-width="3"/>
    <path id="패스_6" data-name="패스 6" d="M44.5-51.6a14.579,14.579,0,0,1,10.85,4.2A14.587,14.587,0,0,1,59.5-36.7,15.406,15.406,0,0,1,56-26.5a17.381,17.381,0,0,1-9.2,5.7L62,0H55.3L40.2-20.7H27.1v-5.1H43.2a10.736,10.736,0,0,0,7.7-2.95A10.584,10.584,0,0,0,54-36.8a9.6,9.6,0,0,0-2.55-6.95Q48.9-46.4,43.2-46.4H18.6V0H13.1V-51.6Z" transform="translate(364 190)" fill="#fff" stroke="#fff" stroke-width="3"/>
    <path id="패스_5" data-name="패스 5" d="M18.6-5.2H56.8V0H13.1V-51.6H56.4v5.2H18.6ZM50.5-28.9v5H27v-5Z" transform="translate(497 190)" fill="#fff" stroke="#fff" stroke-width="3"/>
    <path id="패스_3" data-name="패스 3" d="M18.6-5.2H56.8V0H13.1V-51.6H56.4v5.2H18.6ZM50.5-28.9v5H27v-5Z" transform="translate(561 190)" fill="#fff" stroke="#fff" stroke-width="3"/>
    <path id="패스_2" data-name="패스 2" d="M18.6-5.2H56.8V0H13.1V-51.6H56.4v5.2H18.6ZM50.5-28.9v5H27v-5Z" transform="translate(433 190)" fill="#fff" stroke="#fff" stroke-width="3"/>
    <path id="패스_7" data-name="패스 7" d="M35.2-26.9,59.8,0H52.5L31.8-22.7,13.1,0h-7L48.7-51.6h7ZM6.4-51.6Z" transform="translate(625 190)" fill="#fff" stroke="#fff" stroke-width="3"/>
    <path id="패스_8" data-name="패스 8" d="M35.2-26.9ZM13.7-51.6,26.7-37l-3.4,4.1L6.4-51.6Z" transform="translate(625 190)" fill="#fff" stroke="#fff" stroke-width="3"/>
  </g>
</svg>
