<svg xmlns="http://www.w3.org/2000/svg" xmlns:xlink="http://www.w3.org/1999/xlink" width="294.6" height="106.5" viewBox="0 0 294.6 106.5"><defs><linearGradient id="a" x1="0.077" y1="0.5" x2="1" y2="0.5" gradientUnits="objectBoundingBox"><stop offset="0" stop-color="#fff"/><stop offset="1" stop-color="#b2961e"/></linearGradient></defs><g transform="translate(-236 313.5)"><text transform="translate(236 -232)" fill="#fff" font-size="100" font-family="Orbitron-Bold, Orbitron" font-weight="700"><tspan x="0" y="0">F</tspan></text><text transform="translate(304 -232)" fill="#fff" font-size="100" font-family="Orbitron-Bold, Orbitron" font-weight="700"><tspan x="0" y="0">R</tspan></text><g transform="translate(-118 33)"><path d="M22.543-176H-6v-72H66.923v13.2H53.678v16.2H66.923v13.2H53.678v16.2H66.923V-176H22.543Zm27-13.2v-16.2H29.714v16.2ZM6.9-189.2H22.543v-16.2H6.9Zm42.638-29.4v-16.2H29.714v16.2h19.83ZM6.9-218.6H22.543v-16.2H6.9Z" transform="translate(507.8 -89)" stroke="rgba(0,0,0,0)" stroke-width="1" fill="url(#a)"/><path d="M0,90V0" transform="translate(532.696 -346.5)" fill="none" stroke="#e1d6a9" stroke-width="13"/><path d="M0,90V0" transform="translate(556.349 -346.5)" fill="none" stroke="#bfa844" stroke-width="13"/></g><path d="M62.1-72H76.6v3.5L49.2-36,76.6-3.5V0H62.1L40.6-25.5,19.1,0H4.6V-3.5L31.9-36,4.6-68.5V-72H19.1L40.6-46.5Z" transform="translate(454 -231)" fill="#fff"/></g></svg>